<mxfile host="app.diagrams.net" modified="2021-06-20T01:51:06.800Z" agent="5.0 (X11; CrOS aarch64 13904.55.0) AppleWebKit/537.36 (KHTML, like Gecko) Chrome/91.0.4472.102 Safari/537.36" etag="7Pz5CobdT3QvgbiSqDfx" version="14.8.0" type="github">
  <diagram id="SLma4L032lh029aBpdTh" name="Page-1">
    <mxGraphModel dx="852" dy="514" grid="1" gridSize="10" guides="1" tooltips="1" connect="1" arrows="1" fold="1" page="1" pageScale="1" pageWidth="850" pageHeight="1100" math="0" shadow="0">
      <root>
        <mxCell id="0" />
        <mxCell id="1" parent="0" />
        <mxCell id="VGdxrQE_IydKaYWx6IXs-9" style="edgeStyle=orthogonalEdgeStyle;rounded=0;orthogonalLoop=1;jettySize=auto;html=1;exitX=0.5;exitY=1;exitDx=0;exitDy=0;exitPerimeter=0;entryX=0.5;entryY=0;entryDx=0;entryDy=0;" edge="1" parent="1" source="VGdxrQE_IydKaYWx6IXs-1" target="VGdxrQE_IydKaYWx6IXs-2">
          <mxGeometry relative="1" as="geometry" />
        </mxCell>
        <mxCell id="VGdxrQE_IydKaYWx6IXs-1" value="Start" style="strokeWidth=2;html=1;shape=mxgraph.flowchart.terminator;whiteSpace=wrap;" vertex="1" parent="1">
          <mxGeometry x="370" y="240" width="100" height="60" as="geometry" />
        </mxCell>
        <mxCell id="VGdxrQE_IydKaYWx6IXs-11" style="edgeStyle=orthogonalEdgeStyle;rounded=0;orthogonalLoop=1;jettySize=auto;html=1;exitX=0.5;exitY=1;exitDx=0;exitDy=0;entryX=0.5;entryY=0;entryDx=0;entryDy=0;entryPerimeter=0;" edge="1" parent="1" source="VGdxrQE_IydKaYWx6IXs-2" target="VGdxrQE_IydKaYWx6IXs-3">
          <mxGeometry relative="1" as="geometry" />
        </mxCell>
        <mxCell id="VGdxrQE_IydKaYWx6IXs-2" value="import random" style="shape=parallelogram;html=1;strokeWidth=2;perimeter=parallelogramPerimeter;whiteSpace=wrap;rounded=1;arcSize=12;size=0.23;" vertex="1" parent="1">
          <mxGeometry x="370" y="320" width="100" height="60" as="geometry" />
        </mxCell>
        <mxCell id="VGdxrQE_IydKaYWx6IXs-12" style="edgeStyle=orthogonalEdgeStyle;rounded=0;orthogonalLoop=1;jettySize=auto;html=1;exitX=0.5;exitY=1;exitDx=0;exitDy=0;exitPerimeter=0;entryX=0.5;entryY=0;entryDx=0;entryDy=0;" edge="1" parent="1" source="VGdxrQE_IydKaYWx6IXs-3" target="VGdxrQE_IydKaYWx6IXs-4">
          <mxGeometry relative="1" as="geometry" />
        </mxCell>
        <mxCell id="VGdxrQE_IydKaYWx6IXs-3" value="for loop in range&amp;nbsp;&lt;br&gt;(1,10)" style="strokeWidth=2;html=1;shape=mxgraph.flowchart.decision;whiteSpace=wrap;" vertex="1" parent="1">
          <mxGeometry x="370" y="400" width="100" height="100" as="geometry" />
        </mxCell>
        <mxCell id="VGdxrQE_IydKaYWx6IXs-13" style="edgeStyle=orthogonalEdgeStyle;rounded=0;orthogonalLoop=1;jettySize=auto;html=1;exitX=0.5;exitY=1;exitDx=0;exitDy=0;entryX=0.5;entryY=0;entryDx=0;entryDy=0;" edge="1" parent="1" source="VGdxrQE_IydKaYWx6IXs-4" target="VGdxrQE_IydKaYWx6IXs-5">
          <mxGeometry relative="1" as="geometry" />
        </mxCell>
        <mxCell id="VGdxrQE_IydKaYWx6IXs-4" value="print random" style="shape=parallelogram;html=1;strokeWidth=2;perimeter=parallelogramPerimeter;whiteSpace=wrap;rounded=1;arcSize=12;size=0.23;" vertex="1" parent="1">
          <mxGeometry x="370" y="520" width="100" height="60" as="geometry" />
        </mxCell>
        <mxCell id="VGdxrQE_IydKaYWx6IXs-14" style="edgeStyle=orthogonalEdgeStyle;rounded=0;orthogonalLoop=1;jettySize=auto;html=1;exitX=0.5;exitY=1;exitDx=0;exitDy=0;entryX=0.5;entryY=0;entryDx=0;entryDy=0;entryPerimeter=0;" edge="1" parent="1" source="VGdxrQE_IydKaYWx6IXs-5" target="VGdxrQE_IydKaYWx6IXs-6">
          <mxGeometry relative="1" as="geometry" />
        </mxCell>
        <mxCell id="VGdxrQE_IydKaYWx6IXs-5" value="indicator = number - largest_number" style="rounded=1;whiteSpace=wrap;html=1;absoluteArcSize=1;arcSize=14;strokeWidth=2;" vertex="1" parent="1">
          <mxGeometry x="370" y="600" width="100" height="50" as="geometry" />
        </mxCell>
        <mxCell id="VGdxrQE_IydKaYWx6IXs-15" style="edgeStyle=orthogonalEdgeStyle;rounded=0;orthogonalLoop=1;jettySize=auto;html=1;exitX=0.5;exitY=1;exitDx=0;exitDy=0;exitPerimeter=0;entryX=0.5;entryY=0;entryDx=0;entryDy=0;" edge="1" parent="1" source="VGdxrQE_IydKaYWx6IXs-6" target="VGdxrQE_IydKaYWx6IXs-7">
          <mxGeometry relative="1" as="geometry" />
        </mxCell>
        <mxCell id="VGdxrQE_IydKaYWx6IXs-6" value="if indicator &amp;gt; 0" style="strokeWidth=2;html=1;shape=mxgraph.flowchart.decision;whiteSpace=wrap;" vertex="1" parent="1">
          <mxGeometry x="370" y="670" width="100" height="100" as="geometry" />
        </mxCell>
        <mxCell id="VGdxrQE_IydKaYWx6IXs-16" style="edgeStyle=orthogonalEdgeStyle;rounded=0;orthogonalLoop=1;jettySize=auto;html=1;exitX=0.5;exitY=1;exitDx=0;exitDy=0;entryX=0.5;entryY=0;entryDx=0;entryDy=0;entryPerimeter=0;" edge="1" parent="1" source="VGdxrQE_IydKaYWx6IXs-7" target="VGdxrQE_IydKaYWx6IXs-8">
          <mxGeometry relative="1" as="geometry" />
        </mxCell>
        <mxCell id="VGdxrQE_IydKaYWx6IXs-7" value="print &lt;br&gt;largest_&lt;br&gt;number" style="shape=parallelogram;html=1;strokeWidth=2;perimeter=parallelogramPerimeter;whiteSpace=wrap;rounded=1;arcSize=12;size=0.23;" vertex="1" parent="1">
          <mxGeometry x="370" y="790" width="100" height="60" as="geometry" />
        </mxCell>
        <mxCell id="VGdxrQE_IydKaYWx6IXs-8" value="Stop" style="strokeWidth=2;html=1;shape=mxgraph.flowchart.terminator;whiteSpace=wrap;" vertex="1" parent="1">
          <mxGeometry x="370" y="870" width="100" height="60" as="geometry" />
        </mxCell>
      </root>
    </mxGraphModel>
  </diagram>
</mxfile>
